<?xml version="1.0"?>
<svg xmlns="http://www.w3.org/2000/svg" xmlns:xlink="http://www.w3.org/1999/xlink" xmlns:svgjs="http://svgjs.com/svgjs" version="1.1" width="512" height="512" x="0" y="0" viewBox="0 0 510.001 510.001" style="enable-background:new 0 0 512 512" xml:space="preserve" class=""><g><g xmlns="http://www.w3.org/2000/svg"><path d="m19.721 408.607 148.207-134.312 68.367 68.367-134.312 148.208c-10.812 11.929-25.629 18.717-41.724 19.112-.495.012-.989.019-1.482.019-15.539 0-30.096-6.024-41.129-17.059-11.384-11.384-17.436-26.517-17.04-42.611s7.184-30.912 19.113-41.724z" fill="#07485e" data-original="#07485e" style="" class=""/><path d="m125.591 199.41c0 101.85 82.56 184.41 184.41 184.41v-368.82c-101.85 0-184.41 82.56-184.41 184.41z" fill="#fff5f5" data-original="#fff5f5" style="" class=""/><path d="m310.001 15v368.82c101.85 0 184.41-82.56 184.41-184.41s-82.56-184.41-184.41-184.41z" fill="#e1ebf0" data-original="#e1ebf0" style=""/><path d="m479.411 199.41c0 93.42-75.99 169.41-169.41 169.41v30c109.96 0 199.41-89.45 199.41-199.41 0-109.95-89.45-199.41-199.41-199.41v30c93.42 0 169.41 76 169.41 169.41z" fill="#2682ff" data-original="#2682ff" style=""/><path d="m110.591 199.41c0 109.96 89.46 199.41 199.41 199.41v-30c-93.41 0-169.41-75.99-169.41-169.41 0-93.41 76-169.41 169.41-169.41v-30c-109.95 0-199.41 89.46-199.41 199.41z" fill="#2fc0f0" data-original="#2fc0f0" style="" class=""/><g><path d="m430.815 217.5c0 15.07-9.3 31.81-26.49 35.92-6.23 1.1-12.33 1.58-18.35 1.58-23.99 0-46.65-7.66-70.96-14.41l-5.1-2.02v-120.74l48.721 45.588 2.722 13.516 19.253 11.077c3.622.986 35.672 3.057 38.579 5.254 4.844 3.662 8.496 8.812 10.295 14.806.89 2.969 1.33 6.159 1.33 9.429z" fill="#b40042" data-original="#b40042" style="" class=""/><path d="m309.916 117.83v120.74l-25.59-10.15h-5v25h-75v-65.34l10-44.66h4.67c4.68 1.04 9.61 1.54 14.67 1.54 22.91 0 48.22-10.24 62.53-26.59l4.34-4.95h4.67z" fill="#ff415b" data-original="#ff415b" style="" class=""/><path d="m409.325 188.417-40-15-10.688-10h-39.312v30h100.053c-2.951-2.271-6.35-3.99-10.053-5z" fill="#ffda44" data-original="#ffda44" style="" class=""/></g></g></g></svg>
